<svg xmlns="http://www.w3.org/2000/svg" viewBox="0 0 32 32">
<path d="M28.9,1.9L16.1,0c0,0-0.1,0-0.1,0h0c0,0-0.1,0-0.1,0L4.4,1.7L3.1,1.9C2.7,1.9,2.4,2.3,2.4,2.7v18.6c0,4.4,9.1,9,13.3,10.6
	c0.1,0,0.2,0.1,0.2,0.1c0,0,0.1,0,0.1,0l0,0c0.1,0,0.2,0,0.3-0.1c2.4-1,6.4-2.9,9.3-5.1c0.2-0.2,0.5-0.4,0.7-0.5
	c0.8-0.7,1.6-1.4,2.1-2.1c0.2-0.2,0.5-0.7,0.6-0.8c0.1-0.3,0.3-0.5,0.4-0.8c0.1-0.4,0.2-0.8,0.2-1.2V2.7C29.6,2.3,29.3,1.9,28.9,1.9
	L28.9,1.9z M9.3,11.6v-0.7c0-0.4,0.2-0.6,0.6-0.6h6.4c0.6,0,1.3,0.5,1.3,1.3c0,0.6-0.5,1.3-1.3,1.3h-5.8C9.9,12.9,9.3,12.3,9.3,11.6
	z M19.4,17.4c-0.5,0.1-0.9,0.2-1.4,0.2h-4.6v5.7c0,0.7-0.6,1.2-1.4,1.2h-0.5c-0.4,0-0.6-0.2-0.6-0.6v-7.7c0-0.6,0.4-1.1,1.1-1.2h0
	l5.9,0c1.8-0.1,3.1-1.7,3.1-3.5s-1.4-3.3-3.1-3.4h-5.8c-0.7,0-1.2-0.6-1.2-1.4V6.1c0-0.4,0.2-0.6,0.6-0.6h6.4c3.3,0.1,5.8,2.5,5.8,6
	C23.6,14.7,21.9,16.6,19.4,17.4L19.4,17.4z"/>
</svg>
