<svg xmlns="http://www.w3.org/2000/svg" viewBox="0 0 32 32">
<path d="M32,15.8c0.1,8.5-6.5,15.7-15,16.2c-0.3,0-0.7,0-1,0c-3.4,0-6.8-1.1-9.6-3.2l-1.9,2.1
	c-0.2,0.3-0.7,0.3-0.9,0.1c-0.1-0.1-0.2-0.2-0.2-0.3l-2-8.1c-0.1-0.4,0.1-0.7,0.5-0.8c0.1,0,0.2,0,0.2,0l8.2,1
	c0.4,0,0.6,0.4,0.6,0.7c0,0.1-0.1,0.3-0.2,0.4l-1.8,2c5.4,3.8,12.9,2.5,16.7-2.9c1.5-2.1,2.3-4.6,2.2-7.2c0-0.4,0.1-0.8,0.4-1.1
	c0.3-0.3,0.7-0.4,1.1-0.3l1.3,0.2c0.3,0,0.6,0.2,0.8,0.4C31.9,15.1,32,15.4,32,15.8z M3.6,17.4C3.9,17.1,4,16.7,4,16.3
	C3.9,9.6,9.1,4.2,15.7,4c2.6-0.1,5.1,0.7,7.2,2.2l-1.8,2c-0.2,0.3-0.2,0.7,0.1,0.9c0.1,0.1,0.2,0.1,0.4,0.2l8.2,1
	c0.4,0,0.7-0.2,0.7-0.6c0-0.1,0-0.2,0-0.2l-2-8.1c-0.1-0.4-0.4-0.6-0.8-0.5c-0.1,0-0.3,0.1-0.3,0.2l-1.9,2.1C22.8,1.1,19.5,0,16,0
	c-0.3,0-0.6,0-1,0C6.5,0.5-0.1,7.7,0,16.2c0,0.3,0.1,0.7,0.3,0.9c0.2,0.2,0.5,0.4,0.8,0.4l1.3,0.2C2.9,17.8,3.3,17.6,3.6,17.4z"/>
</svg>
