<svg xmlns="http://www.w3.org/2000/svg" viewBox="0 0 32 32">
<path d="M30.7,4.7v22.7c0,2.6-2.1,4.7-4.7,4.7H10c-2.6,0-4.7-2.1-4.7-4.7v-6h4v6c0,0.4,0.3,0.7,0.7,0.7h16
	c0.4,0,0.7-0.3,0.7-0.7V4.7C26.7,4.3,26.4,4,26,4H10C9.6,4,9.3,4.3,9.3,4.7v6h-4v-6C5.3,2.1,7.4,0,10,0h16C28.6,0,30.7,2.1,30.7,4.7
	z M12,21.3c0,0.7,0.6,1.3,1.3,1.3c0.3,0,0.5-0.1,0.8-0.2l7.7-5.3c0.6-0.4,0.8-1.2,0.3-1.9c-0.1-0.1-0.2-0.2-0.3-0.3l-7.7-5.3
	c-0.6-0.4-1.4-0.3-1.9,0.3c-0.2,0.2-0.2,0.5-0.2,0.8v2.7H2.7c-0.7,0-1.3,0.6-1.3,1.3v2.7c0,0.7,0.6,1.3,1.3,1.3H12V21.3z"/>
</svg>
