<svg xmlns="http://www.w3.org/2000/svg" viewBox="0 0 32 32">
<path d="M25.3,8.6V5.3c0.7,0,1.3-0.8,1.3-1.8V1.8c0-1-0.6-1.8-1.3-1.8H6.8C6,0,5.4,0.8,5.4,1.8v1.8
	c0,1,0.6,1.8,1.3,1.8v3.4c0,1.6,0.7,3.2,2,4.2l3.9,3.1l-3.9,3.1c-1.3,1-2,2.5-2,4.2v3.4c-0.7,0-1.3,0.8-1.3,1.8v1.8
	c0,1,0.6,1.8,1.3,1.8h18.6c0.7,0,1.3-0.8,1.3-1.8v-1.8c0-1-0.6-1.8-1.3-1.8v-3.4c0-1.6-0.7-3.2-2-4.2l-3.8-3.2l3.9-3.1
	C24.6,11.8,25.3,10.3,25.3,8.6z M22.7,8.6c0,0.8-0.4,1.6-1,2.1l-3.9,3.1c-1.2,0.9-1.3,2.6-0.4,3.7c0.1,0.2,0.3,0.3,0.4,0.4l3.9,3.1
	c0.6,0.5,1,1.3,1,2.1v3.4h-2.4l-3.7-5.2c-0.2-0.3-0.6-0.4-0.9-0.2c-0.1,0-0.1,0.1-0.2,0.2l-3.7,5.2H9.4v-3.4c0-0.8,0.4-1.6,1-2.1
	l3.9-3.1c1.2-0.9,1.3-2.6,0.4-3.7c-0.1-0.2-0.3-0.3-0.4-0.4l-3.9-3.1c-0.6-0.5-1-1.3-1-2.1V5.3h13.2L22.7,8.6L22.7,8.6z M12.7,8.5
	c-0.1-0.1-0.1-0.3,0-0.5C12.7,8,12.8,8,12.9,8h6.4c0.2,0,0.3,0.1,0.3,0.3c0,0.1,0,0.2-0.1,0.2l-3,2.9c-0.3,0.3-0.7,0.3-0.9,0
	L12.7,8.5z"/>
</svg>
