<svg xmlns="http://www.w3.org/2000/svg" viewBox="0 0 128 128">
<style type="text/css">
	.st0{fill:url(#SVGID_1_);}
</style>
<linearGradient id="SVGID_1_" gradientUnits="userSpaceOnUse" x1="64" y1="-949.8351" x2="64" y2="-1045.8448" gradientTransform="matrix(1 0 0 -1 0 -933.84)">
	<stop  offset="0" style="stop-color:#9221FF"/>
	<stop  offset="1" style="stop-color:#6410C7"/>
</linearGradient>
<path class="st0" d="M99.2,73.1c0,2-1.6,3.6-3.6,3.6c-2,0-3.6-1.6-3.6-3.6s1.6-3.6,3.6-3.6C97.6,69.5,99.2,71.2,99.2,73.1z
	 M128,42.1v62.7c0,4-3.2,7.2-7.2,7.2H26.3c-4,0-7.2-3.2-7.2-7.2V66c0-1.3,1-2.3,2.3-2.3h0c1.3,0,2.3,1,2.3,2.3v37.3
	c0,2.3,1.8,4.1,4.1,4.1h91.4c2.3,0,4.1-1.8,4.1-4.1V86c0,0,0,0,0,0H93.9c-6.8,0-12.3-5.7-12.3-12.8l0,0c0-7.1,5.5-12.8,12.3-12.8
	h29.4c0,0,0,0,0,0V43.6c0-2.3-1.8-4.1-4.1-4.1H45.6c-1.3,0-2.3-1-2.3-2.3v0c0-1.3,1-2.3,2.3-2.3h75.3C124.8,34.9,128,38.1,128,42.1
	L128,42.1z M123.3,81.5C123.4,81.5,123.4,81.4,123.3,81.5l0-16.4c0,0,0,0,0,0H94.6c-4.5,0-8.2,3.7-8.2,8.2l0,0
	c0,4.5,3.7,8.2,8.2,8.2L123.3,81.5L123.3,81.5z M36.7,58.8H6.2C2.8,58.8,0,56,0,52.6C0,44.9,5,38.4,11.9,36
	c-1.7-2.1-2.7-4.8-2.7-7.7c0-6.8,5.5-12.3,12.3-12.3s12.3,5.5,12.3,12.3c0,2.9-1,5.6-2.7,7.7c6.9,2.4,11.9,8.9,11.9,16.6
	C42.8,56.1,40.1,58.8,36.7,58.8L36.7,58.8z M21.4,20.7c-4.2,0-7.5,3.4-7.5,7.5c0,3.1,1.8,5.8,4.6,7c1,0.4,1.6,1.5,1.4,2.6
	c-0.2,1.1-1.2,1.9-2.3,1.9c-7.1,0-12.9,5.8-12.9,12.9c0,0.8,0.7,1.4,1.4,1.4h30.5c0.8,0,1.4-0.6,1.4-1.4c0-7.1-5.8-12.9-12.9-12.9
	c-1.1,0-2.1-0.8-2.3-1.9c-0.2-1.1,0.4-2.2,1.4-2.6c2.8-1.2,4.6-3.9,4.6-7C29,24.1,25.6,20.7,21.4,20.7L21.4,20.7z"/>
</svg>
