<svg xmlns="http://www.w3.org/2000/svg" viewBox="0 0 32 32">
<path d="M17.3,20c0-0.5-0.1-0.9-0.4-1.3h9c0.4,0,0.7,0.3,0.7,0.7v1.3c0,0.4-0.3,0.7-0.7,0.7h-8.7V20z M26,24h-8.7v2.7H26
	c0.4,0,0.7-0.3,0.7-0.7v-1.3C26.7,24.3,26.4,24,26,24z M26.7,15.3V14c0-0.4-0.3-0.7-0.7-0.7H15.3c-0.4,0-0.7,0.3-0.7,0.7v1.3
	c0,0.4,0.3,0.7,0.7,0.7H26C26.4,16,26.7,15.7,26.7,15.3z M29.3,5.3h-2.7V4c0-0.7-0.6-1.3-1.3-1.3H24C24,1.2,22.8,0,21.3,0H20
	c-1.5,0-2.7,1.2-2.7,2.7H16c-0.7,0-1.3,0.6-1.3,1.3v1.3H12c-1.5,0-2.7,1.2-2.7,2.7v4c0.7,0,1.4,0.3,1.9,0.8l0.8,0.8V8h2.7v1.3
	c0,0.7,0.6,1.3,1.3,1.3h9.3c0.7,0,1.3-0.6,1.3-1.3V8h2.7l0,21.3h-12v1.3c0,0.5-0.1,0.9-0.2,1.3h12.2c1.5,0,2.7-1.2,2.7-2.7V8
	C32,6.5,30.8,5.3,29.3,5.3z M9.3,19.3c0,0.4,0.3,0.7,0.7,0.7h4.7l-5.3-5.3V19.3z M6.7,21.3v-6.7H1.3C0.6,14.7,0,15.3,0,16v14.7
	C0,31.4,0.6,32,1.3,32h12c0.7,0,1.3-0.6,1.3-1.3v-8H8C7.3,22.7,6.7,22.1,6.7,21.3z"/>
</svg>
