<svg xmlns="http://www.w3.org/2000/svg" viewBox="0 0 128 128">
<style type="text/css">
	.st0{fill:url(#SVGID_1_);}
</style>
<linearGradient id="SVGID_1_" gradientUnits="userSpaceOnUse" x1="64" y1="-974.2585" x2="64" y2="-1084.8616" gradientTransform="matrix(1 0 0 -1 0 -965.5601)">
	<stop  offset="0" style="stop-color:#9221FF"/>
	<stop  offset="1" style="stop-color:#6410C7"/>
</linearGradient>
<path class="st0" d="M17.7,95.7c-4,0-7.3,3.3-7.3,7.3c0,4,3.3,7.3,7.3,7.3S25,107,25,103C25,99,21.8,95.7,17.7,95.7z M17.7,105.9
	c-1.6,0-2.9-1.3-2.9-2.9s1.3-2.9,2.9-2.9s2.9,1.3,2.9,2.9S19.3,105.9,17.7,105.9z M83.6,37.6c-1-1-1-2.5,0-3.4l1.2-1.2
	c1-1,2.5-1,3.4,0c1,1,1,2.5,0,3.4L87,37.6C86,38.6,84.5,38.6,83.6,37.6z M77.1,31.1c-1-1-1-2.5,0-3.4l1.2-1.2c1-1,2.5-1,3.4,0
	s1,2.5,0,3.4l-1.2,1.2C79.6,32.1,78,32.1,77.1,31.1z M119.1,86.2H12.3l53.2-53.2l16.2,16.2L54.2,76c-1,1-1,2.6,0,3.6l0,0
	c1,1,2.6,1,3.6,0l46.1-44.9c3.1-3.1,3.1-8.2,0-11.3L91.5,11c-3.1-3.1-8.2-3.1-11.3,0L2.4,88.8c-1.5,1.5-2.3,3.5-2.3,5.5
	c0,0.2,0,0.5,0,0.7v15.3c0,4.9,4,8.9,8.9,8.9h110.2c4.9,0,8.9-4,8.9-8.9V95.1C128,90.1,124,86.2,119.1,86.2L119.1,86.2z M82.6,15.9
	c1.8-1.8,4.7-1.8,6.5,0l10,10c1.8,1.8,1.8,4.7,0,6.5L85.3,45.7L69,29.5L82.6,15.9L82.6,15.9z M122.7,109.4c0,2.5-2,4.6-4.6,4.6H9.8
	c-2.5,0-4.6-2-4.6-4.6V95.9c0-0.1,0-0.1,0-0.2c0,0,0,0,0-0.1c0-0.1,0-0.1,0-0.2c0,0,0,0,0-0.1c0-0.1,0-0.1,0-0.2c0,0,0,0,0,0
	c0-0.1,0-0.1,0-0.2c0,0,0,0,0-0.1c0,0,0-0.1,0-0.1c0,0,0,0,0-0.1c0-0.1,0-0.1,0.1-0.2c0,0,0,0,0,0c0-0.1,0-0.1,0.1-0.2
	c0,0,0,0,0-0.1c0,0,0-0.1,0.1-0.1c0,0,0,0,0-0.1c0-0.1,0.1-0.1,0.1-0.2c0,0,0,0,0,0c0,0,0-0.1,0.1-0.1c0,0,0,0,0-0.1
	c0,0,0-0.1,0.1-0.1c0,0,0,0,0-0.1C6,93.4,6,93.4,6,93.3l0,0l0,0c0.8-1.2,2.2-2,3.8-2h108.3c2.5,0,4.6,2,4.6,4.6L122.7,109.4
	L122.7,109.4z M115.7,110c-1.3,0-2.4-1.1-2.4-2.4v-9.8c0-1.3,1.1-2.4,2.4-2.4s2.4,1.1,2.4,2.4v9.8C118.1,108.9,117,110,115.7,110z
	 M106.6,110c-1.3,0-2.4-1.1-2.4-2.4v-9.8c0-1.3,1.1-2.4,2.4-2.4s2.4,1.1,2.4,2.4v9.8C109,108.9,107.9,110,106.6,110z M97.4,110
	c-1.3,0-2.4-1.1-2.4-2.4v-9.8c0-1.3,1.1-2.4,2.4-2.4c1.3,0,2.4,1.1,2.4,2.4v9.8C99.8,108.9,98.8,110,97.4,110z"/>
</svg>
