<svg xmlns="http://www.w3.org/2000/svg" viewBox="0 0 128 128">
<style type="text/css">
	.st0{fill:url(#SVGID_1_);}
</style>
<linearGradient id="SVGID_1_" gradientUnits="userSpaceOnUse" x1="64" y1="-927.7502" x2="64" y2="-1022.6497" gradientTransform="matrix(1 0 0 -1 0 -911.2)">
	<stop  offset="0" style="stop-color:#9221FF"/>
	<stop  offset="1" style="stop-color:#6410C7"/>
</linearGradient>
<path class="st0" d="M98.9,72.1c0,2-1.6,3.6-3.6,3.6s-3.6-1.6-3.6-3.6s1.6-3.6,3.6-3.6S98.9,70.1,98.9,72.1z M128,40.7v63.4
	c0,4-3.3,7.3-7.3,7.3H25.2c-4,0-7.3-3.3-7.3-7.3V62.5c0-1.3,1-2.3,2.3-2.3h0c1.3,0,2.3,1,2.3,2.3v40.1c0,2.3,1.9,4.2,4.2,4.2h92.4
	c2.3,0,4.2-1.9,4.2-4.2V85.2c0,0,0,0,0,0H93.5c-6.9,0-12.5-5.7-12.5-12.9l0,0c0-7.2,5.6-12.9,12.5-12.9h29.7c0,0,0,0,0,0v-17
	c0-2.3-1.9-4.2-4.2-4.2H44.6c-1.3,0-2.3-1-2.3-2.3v0c0-1.3,1-2.3,2.3-2.3h76.1C124.7,33.4,128,36.7,128,40.7L128,40.7z M123.3,80.5
	C123.3,80.5,123.3,80.5,123.3,80.5l0-16.6c0,0,0,0,0,0H94.2c-4.6,0-8.3,3.7-8.3,8.3l0,0c0,4.6,3.7,8.3,8.3,8.3L123.3,80.5
	L123.3,80.5z M17.1,43.5L26,38c0,0,0.1-0.1,0.1-0.1c0,0,0,0,0,0l0,0c0.1-0.1,0.2-0.2,0.3-0.3l0,0c0.1-0.1,0.2-0.2,0.3-0.3
	c0,0,0,0,0,0c0,0,0.1-0.1,0.1-0.1c0-0.1,0.1-0.1,0.1-0.2c0,0,0-0.1,0-0.1c0.1-0.1,0.1-0.3,0.1-0.4c0-0.2,0-0.3,0-0.4
	c0-0.1,0-0.3,0-0.4c0-0.2-0.1-0.3-0.1-0.4c0,0,0,0,0-0.1c0-0.1,0-0.1-0.1-0.2c0,0-0.1-0.1-0.1-0.1c0,0,0,0,0,0
	c-0.1-0.1-0.2-0.2-0.3-0.3l0-0.1c-0.1-0.1-0.2-0.2-0.3-0.3c0,0,0,0,0,0c0,0,0-0.1-0.1-0.1l-8.9-5.5c-0.3-0.2-0.7-0.3-1.1-0.3
	c-0.8,0-1.5,0.4-1.9,1.2c-0.2,0.3-0.3,0.7-0.3,1.1c0,0.8,0.4,1.6,1.1,2l1.9,1.2H2.2C1,33.7,0,34.7,0,36s1,2.3,2.2,2.3h14.7L15,39.5
	c-0.7,0.4-1.1,1.2-1.1,2c0,0.4,0.1,0.8,0.3,1.1c0.4,0.7,1.1,1.2,1.9,1.2C16.4,43.8,16.8,43.7,17.1,43.5L17.1,43.5z M29.7,55
	c3.9,0,7.1-3.2,7.1-7.1V23.7c0-3.9-3.2-7.1-7.1-7.1H11.4c-3.9,0-7.1,3.2-7.1,7.1v1.9c0,1.1,0.9,2.1,2.1,2.1s2.1-0.9,2.1-2.1v-1.9
	c0-1.6,1.3-3,3-3h18.3c1.6,0,3,1.3,3,3v24.2c0,1.6-1.3,3-3,3H11.4c-1.6,0-3-1.3-3-3v-1.3c0-1.1-0.9-2.1-2.1-2.1s-2.1,0.9-2.1,2.1
	v1.3c0,3.9,3.2,7.1,7.1,7.1H29.7z"/>
</svg>
