<svg xmlns="http://www.w3.org/2000/svg" viewBox="0 0 32 32">
<path d="M28.9,1.9L16.1,0c0,0-0.1,0-0.1,0h0c0,0-0.1,0-0.1,0L4.4,1.7L3.1,1.9C2.7,1.9,2.4,2.3,2.4,2.7v18.6c0,4.4,9.1,9,13.3,10.6
	c0.1,0,0.2,0.1,0.2,0.1c0,0,0.1,0,0.1,0l0,0c0.1,0,0.2,0,0.3-0.1c2.4-1,6.4-2.9,9.3-5.1c0.2-0.2,0.5-0.4,0.7-0.5
	c0.8-0.7,1.6-1.4,2.1-2.1c0.2-0.2,0.5-0.7,0.6-0.8c0.1-0.3,0.3-0.5,0.4-0.8c0.1-0.4,0.2-0.8,0.2-1.2V2.7C29.6,2.3,29.3,1.9,28.9,1.9
	L28.9,1.9z M24,10.7l-9.2,10.4c-0.5,0.6-1.4,0.6-1.9,0.1c0,0-0.1-0.1-0.1-0.1l-4.4-4.6c-0.2-0.3-0.3-0.6,0-0.9L9,14.8
	c0.2-0.3,0.6-0.3,0.8-0.2l3.6,1.8l8.8-7.5c0.3-0.2,0.7-0.2,0.9,0l0.8,0.8C24.2,10,24.2,10.4,24,10.7L24,10.7z"/>
</svg>
