<svg xmlns="http://www.w3.org/2000/svg" viewBox="0 0 32 32">
<path d="M28,6h-3.8l-0.4-1.4c-0.5-1.5-1.9-2.5-3.4-2.6h-8.7c-1.6,0.1-2.9,1.1-3.4,2.6L7.8,6H4c-2.2,0-4,1.8-4,4v16
	c0,2.2,1.8,4,4,4h24c2.2,0,4-1.8,4-4V10C32,7.8,30.2,6,28,6z M16,26c-4.4,0-8-3.6-8-8s3.6-8,8-8s8,3.6,8,8S20.4,26,16,26z
	 M29.3,10.7c0,0.4-0.3,0.7-0.7,0.7h-1.3c-0.4,0-0.7-0.3-0.7-0.7V9.3c0-0.4,0.3-0.7,0.7-0.7h1.3c0.4,0,0.7,0.3,0.7,0.7V10.7z
	 M21.3,18c0,2.9-2.4,5.3-5.3,5.3s-5.3-2.4-5.3-5.3s2.4-5.3,5.3-5.3C18.9,12.7,21.3,15.1,21.3,18C21.3,18,21.3,18,21.3,18z"/>
</svg>
