<svg xmlns="http://www.w3.org/2000/svg" viewBox="0 0 32 32">
<path d="M25.8,12.3h-1.2V6.2c0-3.4-2.8-6.2-6.2-6.2h-4.9c-3.4,0-6.2,2.8-6.2,6.2v6.2H6.2c-1.4,0-2.5,1.1-2.5,2.5v14.8
	c0,1.4,1.1,2.5,2.5,2.5h19.7c1.4,0,2.5-1.1,2.5-2.5V14.8C28.3,13.4,27.2,12.3,25.8,12.3 M17.2,23v3.4c0,0.3-0.3,0.6-0.6,0.6h-1.2
	c-0.3,0-0.6-0.3-0.6-0.6V23c-1.2-0.7-1.6-2.2-0.9-3.4c0.7-1.2,2.2-1.6,3.4-0.9c1.2,0.7,1.6,2.2,0.9,3.4C17.9,22.5,17.6,22.8,17.2,23
	 M19.7,12.3h-7.4V6.2c0-0.7,0.6-1.2,1.2-1.2h4.9c0.7,0,1.2,0.6,1.2,1.2V12.3z"/>
</svg>
