<svg xmlns="http://www.w3.org/2000/svg" viewBox="0 0 32 32">
<path d="M2.7,18.7h10.7V32H4c-0.7,0-1.3-0.6-1.3-1.3V18.7z M18.7,32H28c0.7,0,1.3-0.6,1.3-1.3v-12H18.7V32z M32,10.7V16
	H18.7v-3.3c0-0.4-0.3-0.7-0.7-0.7h-4c-0.4,0-0.7,0.3-0.7,0.7V16H0v-5.3c0-0.7,0.6-1.3,1.3-1.3h5.2L5.8,9C4.2,8.2,3.5,6.2,4.4,4.5
	c0.2-0.4,0.5-0.8,0.9-1.1l3.3-2.7c1.4-1.2,3.5-0.9,4.7,0.5c0.1,0.1,0.2,0.3,0.3,0.5L16,6.1l2.4-4.4c0.9-1.6,2.9-2.2,4.5-1.3
	c0.2,0.1,0.3,0.2,0.5,0.3l3.3,2.7c1.4,1.2,1.7,3.2,0.5,4.7C27,8.5,26.6,8.8,26.2,9l-0.7,0.4h5.2C31.4,9.3,32,9.9,32,10.7z M14,9.3
	l-3.3-6L7.3,6L14,9.3z M24.7,6l-3.3-2.7l-3.3,6L24.7,6z"/>
</svg>
