<svg xmlns="http://www.w3.org/2000/svg" viewBox="0 0 128 128">
<style type="text/css">
	.st0{fill:url(#SVGID_1_);}
</style>
<linearGradient id="SVGID_1_" gradientUnits="userSpaceOnUse" x1="64" y1="-952.8525" x2="64" y2="-1049.1475" gradientTransform="matrix(1 0 0 -1 0 -937)">
	<stop  offset="0" style="stop-color:#9221FF"/>
	<stop  offset="1" style="stop-color:#6410C7"/>
</linearGradient>
<path class="st0" d="M99.3,73.3c0,2-1.6,3.6-3.6,3.6s-3.6-1.6-3.6-3.6s1.6-3.6,3.6-3.6S99.3,71.3,99.3,73.3z M128,42.3V105
	c0,4-3.2,7.2-7.2,7.2H26.4c-4,0-7.2-3.2-7.2-7.2V66.2c0-1.3,1-2.3,2.3-2.3h0c1.3,0,2.3,1,2.3,2.3v37.2c0,2.3,1.8,4.1,4.1,4.1h91.3
	c2.3,0,4.1-1.8,4.1-4.1V86.2c0,0,0,0,0,0H94c-6.8,0-12.3-5.7-12.3-12.7l0,0c0-7.1,5.5-12.7,12.3-12.7h29.4c0,0,0,0,0,0V43.8
	c0-2.3-1.8-4.1-4.1-4.1H50.8c-1.3,0-2.3-1-2.3-2.3v0c0-1.3,1-2.3,2.3-2.3h70.1C124.8,35.1,128,38.3,128,42.3L128,42.3z M123.3,81.6
	C123.4,81.6,123.4,81.6,123.3,81.6l0-16.4c0,0,0,0,0,0H94.6c-4.5,0-8.2,3.7-8.2,8.2l0,0c0,4.5,3.7,8.2,8.2,8.2L123.3,81.6
	L123.3,81.6z M40.7,35.1H23.9V18.2c0-1.3-1.1-2.4-2.4-2.4s-2.4,1.1-2.4,2.4v16.9H2.4c-1.3,0-2.4,1.1-2.4,2.4l0,0
	c0,1.3,1.1,2.4,2.4,2.4h16.8v16.7c0,1.3,1.1,2.4,2.4,2.4s2.4-1.1,2.4-2.4V39.9h16.8c1.3,0,2.4-1.1,2.4-2.4l0,0
	C43.1,36.2,42,35.1,40.7,35.1z"/>
</svg>
