<svg xmlns="http://www.w3.org/2000/svg" viewBox="0 0 31.78 26.43"><path d="M31.78,20.11v5.05c0,.7-.57,1.26-1.26,1.26H2.72c-.7,0-1.26-.57-1.26-1.26v-5.05c0-.7.57-1.26,1.26-1.26h27.79c.7,0,1.26.57,1.26,1.26ZM12.02,8.19l-2.31,2.31c-.49.49-.49,1.29,0,1.79.19.19.43.31.69.35l11.91,1.99c.69.11,1.34-.35,1.45-1.04.02-.14.02-.28,0-.42l-1.99-11.91c-.11-.69-.77-1.15-1.45-1.04-.26.04-.5.17-.69.35l-2.33,2.33C12.41-1.02,4.75-.59.51,1.96.15,2.18-.04,2.6,0,3.02c.06.61.59,1.05,1.2,1,4.08-.5,8.13,1.07,10.82,4.18Z"/></svg>
