<svg xmlns="http://www.w3.org/2000/svg" viewBox="0 0 32 32">
<path d="M18.2,8.8v3.6h-4.3V8.8c0-0.5,0.4-0.8,0.9-0.8h2.6C17.8,7.9,18.2,8.3,18.2,8.8L18.2,8.8z M29.6,2.7v18.6
	c0,0.4-0.1,0.8-0.2,1.2c-0.1,0.3-0.2,0.5-0.4,0.8c-0.1,0.1-0.4,0.6-0.6,0.8c-0.6,0.7-1.3,1.4-2.1,2.1c-0.2,0.2-0.5,0.4-0.7,0.5
	c-3,2.3-7,4.2-9.3,5.1C16.2,32,16.1,32,16,32l0,0c0,0-0.1,0-0.1,0c-0.1,0-0.2,0-0.2-0.1c-4.2-1.7-13.3-6.3-13.3-10.6V2.7
	c0-0.4,0.3-0.8,0.7-0.8l1.2-0.2L15.9,0c0,0,0.1,0,0.1,0h0c0,0,0.1,0,0.1,0l12.7,1.9C29.3,1.9,29.6,2.3,29.6,2.7z M22.7,13.8
	c0-0.8-0.6-1.4-1.3-1.4h-0.8V9c0-1.9-1.4-3.3-3.4-3.3h-2.3c-1.9,0-3.4,1.4-3.4,3.3v3.3h-0.7c-0.8,0-1.4,0.7-1.4,1.4v7.9
	c0,0.8,0.7,1.4,1.4,1.4h10.4c0.8,0,1.4-0.6,1.4-1.4C22.7,21.7,22.7,13.8,22.7,13.8z"/>
</svg>
