<svg xmlns="http://www.w3.org/2000/svg" viewBox="0 0 32 32">
<path d="M16,0C7.2,0,0,7.2,0,16s7.2,16,16,16s16-7.2,16-16C32,7.2,24.8,0,16,0z M16,28C9.4,28,4,22.6,4,16S9.4,4,16,4
	s12,5.4,12,12C28,22.6,22.6,28,16,28z M21,9.3L12.9,12c-0.4,0.1-0.7,0.4-0.8,0.8L9.3,21c-0.5,1.4,0.3,2.2,1.7,1.7l8.2-2.7
	c0.4-0.1,0.7-0.4,0.8-0.8l2.7-8.2C23.2,9.6,22.4,8.8,21,9.3z M17.4,17.4c-0.8,0.8-2,0.8-2.8,0c-0.8-0.8-0.8-2,0-2.8
	c0.8-0.8,2-0.8,2.8,0C18.2,15.4,18.2,16.6,17.4,17.4C17.4,17.4,17.4,17.4,17.4,17.4z"/>
</svg>
