<svg xmlns="http://www.w3.org/2000/svg" viewBox="0 0 32 32">
<path d="M4.5,29.4C4.5,30.9,5.6,32,7,32H25c1.4,0,2.6-1.1,2.6-2.6V9h-23V29.4z M21.1,14.1c0-0.7,0.6-1.3,1.3-1.3
	c0.7,0,1.3,0.6,1.3,1.3v12.8c0,0.7-0.6,1.3-1.3,1.3c-0.7,0-1.3-0.6-1.3-1.3V14.1z M14.7,14.1c0-0.7,0.6-1.3,1.3-1.3
	c0.7,0,1.3,0.6,1.3,1.3v12.8c0,0.7-0.6,1.3-1.3,1.3c-0.7,0-1.3-0.6-1.3-1.3V14.1z M8.3,14.1c0-0.7,0.6-1.3,1.3-1.3
	c0.7,0,1.3,0.6,1.3,1.3v12.8c0,0.7-0.6,1.3-1.3,1.3c-0.7,0-1.3-0.6-1.3-1.3V14.1z M28.8,3.8v2.6H3.2V3.8c0-0.7,0.6-1.3,1.3-1.3h7.7
	V1.3c0-0.7,0.6-1.3,1.3-1.3h5.1c0.7,0,1.3,0.6,1.3,1.3v1.3h7.7C28.2,2.6,28.8,3.1,28.8,3.8z"/>
</svg>
