<svg xmlns="http://www.w3.org/2000/svg" viewBox="0 0 32 32">
<path d="M24.3,0.6H5.1C2.3,0.6,0,2.9,0,5.8c0,0,0,0,0,0v20.5c0,2.8,2.3,5.1,5.1,5.1h19.2c0.7,0,1.3-0.6,1.3-1.3
	v-2.6H5.1c-0.7,0-1.3-0.6-1.3-1.3S4.4,25,5.1,25h20.5v-23C25.6,1.2,25,0.6,24.3,0.6z M18,19.2c0,0.4-0.3,0.6-0.6,0.6c0,0,0,0,0,0
	H8.2c-0.4,0-0.6-0.3-0.7-0.6c0,0,0,0,0,0V18c0-0.4,0.2-0.9,0.6-1.1l2-1.3L10,14.1c-0.5-0.2-0.8-0.6-1-1l-0.1-0.4
	c-0.1-0.3-0.1-0.6,0.1-0.8V9.5c0-2.1,1.7-3.8,3.8-3.8s3.8,1.7,3.8,3.8v2.3c0.1,0.2,0.2,0.5,0.1,0.8L16.6,13c-0.2,0.5-0.5,0.8-1,1
	l-0.2,1.5l2,1.3c0.4,0.2,0.6,0.7,0.6,1.1V19.2z M32,21.1V25c0,0.7-0.6,1.3-1.3,1.3h-2.6v-6.4h2.6C31.4,19.8,32,20.4,32,21.1z
	 M32,12.2V16c0,0.7-0.6,1.3-1.3,1.3h-2.6v-6.4h2.6C31.4,10.9,32,11.5,32,12.2z M32,3.2V7c0,0.7-0.6,1.3-1.3,1.3h-2.6V1.9h2.6
	C31.4,1.9,32,2.5,32,3.2z"/>
</svg>
