<svg xmlns="http://www.w3.org/2000/svg" viewBox="0 0 88.841 105.11">
  <defs>
    <linearGradient id="linear-gradient" x1="0.874" x2="0.257" y2="1.028" gradientUnits="objectBoundingBox">
      <stop offset="0" stop-color="#721dea"/>
      <stop offset="1" stop-color="#431180"/>
    </linearGradient>
  </defs>
  <path d="M88.841,9.476A2.822,2.822,0,0,0,86.467,6.69L44.892.036A2.857,2.857,0,0,0,44.447,0h-.03c-.12,0-.372.026-.415.033L6.408,6.043l-4.031.644A2.825,2.825,0,0,0,0,9.472V70.149C0,84.369,29.782,99.406,43.368,104.9a2.8,2.8,0,0,0,.78.193,2.382,2.382,0,0,0,.269.013h.007a2.8,2.8,0,0,0,1.049-.2c7.763-3.124,20.778-9.356,30.5-16.767.754-.591,1.561-1.185,2.261-1.776a42.017,42.017,0,0,0,6.939-6.972c.548-.724,1.567-2.314,1.819-2.769a16.472,16.472,0,0,0,1.159-2.56,11.655,11.655,0,0,0,.691-3.861Zm-3.4,59.378c0,.3-.013.594-.043.893a11.165,11.165,0,0,1-.6,2.673,15.513,15.513,0,0,1-1.069,2.364c-.232.422-1.172,1.889-1.68,2.557a38.768,38.768,0,0,1-6.408,6.438c-.648.548-1.391,1.1-2.088,1.64-8.978,6.843-21,12.6-28.165,15.485a2.589,2.589,0,0,1-1.942,0C30.9,95.824,3.4,81.939,3.4,68.807V12.773A2.6,2.6,0,0,1,5.591,10.2l3.722-.594L44.032,4.054a2.581,2.581,0,0,1,.823,0L81.012,9.841l2.234.359a2.59,2.59,0,0,1,1.571.883,2.466,2.466,0,0,1,.262.369,2.616,2.616,0,0,1,.319.853,2.734,2.734,0,0,1,.043.468ZM27.4,40.589a2.93,2.93,0,0,1-2.752-2.918v-2.5a.412.412,0,0,1,.412-.412l22.428.007a2.9,2.9,0,0,1,.007,5.8s-20.08.027-20.094.03M72.42,37.671A19.88,19.88,0,0,1,53.428,57.5l-18.337.013a.378.378,0,0,0-.379.355v.017s-.01,22.8-.01,22.806a2.93,2.93,0,0,1-2.919,2.752h-2.5a.411.411,0,0,1-.412-.412V54.351a2.9,2.9,0,0,1,2.467-2.663,2.978,2.978,0,0,1,.425-.03S52.8,51.672,53,51.665v0a14.04,14.04,0,0,0,.219-28.056s-.7-.033-1.448-.033l-20.177.047a2.93,2.93,0,0,1-2.752-2.918V18.2a.412.412,0,0,1,.412-.412s23.58,0,23.752.007A19.862,19.862,0,0,1,72.42,37.671" fill="url(#linear-gradient)"/>
</svg>
